<?xml version="1.0" standalone="no"?>
<!DOCTYPE svg PUBLIC "-//W3C//DTD SVG 20010904//EN"
 "http://www.w3.org/TR/2001/REC-SVG-20010904/DTD/svg10.dtd">
<svg version="1.0" xmlns="http://www.w3.org/2000/svg"
 width="394.000000pt" height="128.000000pt" viewBox="0 0 394.000000 128.000000"
 preserveAspectRatio="xMidYMid meet">

<g transform="translate(0.000000,128.000000) scale(0.100000,-0.100000)"
fill="#000000" stroke="none">
<path d="M0 691 l0 -590 28 -3 c21 -2 28 -9 30 -30 3 -22 -2 -29 -22 -34 -14
-3 -26 -12 -26 -20 0 -10 14 -14 53 -14 l53 0 15 48 c19 61 40 61 59 0 14 -44
18 -48 48 -48 32 0 32 0 32 50 0 49 0 50 31 50 30 0 31 -2 26 -33 -7 -42 12
-67 51 -67 30 0 31 1 35 52 l3 53 2 -52 2 -53 40 0 c22 0 40 4 40 9 0 5 7 8
16 7 25 -2 28 21 4 29 -34 11 -23 50 15 52 18 1 22 -1 10 -4 -35 -9 -39 -22
-11 -34 21 -10 27 -18 23 -36 -4 -23 -3 -23 79 -23 l84 0 0 51 c0 49 1 50 28
47 21 -2 28 -9 30 -30 3 -22 -2 -29 -22 -34 -14 -3 -26 -12 -26 -20 0 -10 14
-14 53 -14 l53 0 15 48 c18 61 39 61 58 -1 13 -44 17 -47 48 -47 l33 0 0 53 1
52 29 -35 30 -34 0 32 c0 18 5 32 10 32 6 0 10 -22 10 -50 l0 -50 45 0 45 0 0
44 c0 34 -4 46 -17 49 -10 3 2 5 27 5 25 0 37 -2 28 -5 -14 -3 -18 -15 -18
-49 l0 -44 45 0 45 0 0 50 c0 28 5 50 10 50 6 0 10 -9 10 -20 0 -15 7 -20 26
-20 21 0 25 4 21 20 -3 11 -1 20 4 20 5 0 9 -22 9 -50 l0 -50 43 0 42 0 -3 50
c-4 49 -4 50 25 49 23 -1 24 -2 6 -6 -30 -6 -30 -30 0 -36 l22 -4 -22 -2 c-31
-1 -29 -29 3 -41 14 -6 44 -10 67 -10 32 0 38 3 29 12 -15 15 -15 61 0 76 38
38 88 -10 68 -63 -9 -24 -8 -25 33 -25 l42 0 -3 50 c-5 59 7 64 40 18 l23 -33
6 35 c6 31 7 29 8 -17 l1 -53 84 0 84 0 17 50 c9 28 23 50 30 50 7 0 21 -23
30 -50 15 -45 20 -50 46 -50 16 0 29 4 29 8 0 5 10 8 21 8 32 -1 34 19 4 32
-36 17 -30 46 10 49 20 1 23 0 8 -4 -25 -5 -32 -33 -9 -33 7 0 19 -7 26 -15
10 -12 10 -18 0 -30 -11 -13 -7 -15 29 -15 22 0 41 4 41 8 0 5 10 8 21 8 32
-1 34 19 4 32 -36 17 -30 46 10 49 18 1 22 -1 10 -4 -35 -9 -39 -22 -10 -33
22 -8 26 -15 23 -35 -5 -23 -2 -25 31 -25 36 0 38 1 50 50 19 73 40 64 66 -27
5 -17 14 -23 36 -23 16 0 29 4 29 10 0 5 10 9 21 7 32 -3 34 18 4 31 -36 17
-30 46 10 49 20 1 23 0 8 -4 -25 -5 -32 -33 -9 -33 7 0 19 -7 26 -15 10 -12
10 -18 0 -30 -11 -13 0 -15 86 -15 76 0 95 3 86 12 -14 14 -16 88 -3 88 6 0
11 -19 13 -42 2 -30 8 -43 18 -43 10 0 16 13 18 42 2 24 7 43 13 43 13 0 11
-74 -3 -88 -9 -9 -2 -12 35 -12 l47 0 0 50 c0 28 4 50 8 50 5 0 19 -15 33 -32
l24 -33 6 35 c6 31 7 29 8 -17 l1 -53 39 0 40 0 4 53 3 52 2 -52 2 -53 49 0
50 0 -15 36 c-8 20 -13 43 -11 52 2 10 9 -1 17 -25 15 -48 26 -48 36 2 3 19
10 35 15 35 10 0 2 -43 -12 -72 -14 -27 -12 -28 44 -28 l52 0 -3 50 -4 50 34
-1 c30 -2 30 -2 6 -6 -34 -5 -37 -30 -5 -36 l22 -4 -22 -2 c-13 0 -23 -8 -23
-16 0 -19 39 -35 83 -35 l32 0 -4 51 -3 50 33 -3 c31 -3 34 -6 34 -38 1 -19 4
-41 8 -48 10 -14 67 -16 67 -2 0 5 10 9 21 7 32 -3 34 18 4 31 -36 17 -30 46
10 49 20 1 23 0 8 -4 -25 -5 -32 -33 -9 -33 7 0 19 -7 26 -15 10 -12 10 -18 0
-30 -11 -13 -6 -15 33 -15 l46 0 4 52 3 53 2 -52 2 -53 50 0 50 0 0 44 c0 34
-4 46 -17 49 -10 3 2 5 27 4 25 0 35 -2 23 -4 -20 -4 -23 -11 -23 -49 l0 -44
53 0 52 0 -3 50 c-4 50 -4 50 27 50 l31 0 0 105 0 105 -66 0 -65 0 3 258 c3
226 5 260 21 283 19 28 56 49 87 49 18 0 20 7 20 63 -1 61 -1 61 -14 31 -17
-39 -52 -64 -88 -64 -28 0 -28 0 -28 70 l0 70 65 0 65 0 0 105 0 105 -1686 0
c-1345 0 -1684 -3 -1678 -12 4 -7 14 -21 22 -31 10 -12 15 -34 13 -68 -1 -36
3 -57 14 -69 9 -10 15 -21 14 -26 -4 -21 2 -33 20 -39 28 -9 89 -71 110 -113
10 -20 22 -55 26 -77 4 -22 12 -43 18 -47 8 -5 7 -18 -2 -45 -7 -22 -11 -50
-9 -64 3 -21 9 -24 51 -27 42 -3 47 -6 47 -27 0 -13 -6 -30 -14 -37 -10 -10
-13 -39 -12 -102 l1 -88 120 -47 c92 -35 114 -47 92 -49 -17 -2 -118 32 -272
92 -134 53 -248 96 -253 96 -6 0 -119 -43 -252 -95 -133 -53 -256 -95 -273
-95 -24 1 -3 13 88 49 l120 49 3 87 c2 66 -1 93 -13 111 -28 42 -20 54 35 54
50 0 50 0 50 33 0 17 -4 48 -10 67 -8 27 -7 36 5 43 8 4 15 21 15 38 0 63 67
161 133 195 19 11 27 20 23 31 -4 10 3 26 16 40 19 21 21 28 12 63 -10 34 -8
42 12 67 13 15 23 31 24 36 0 4 -124 7 -275 7 l-275 0 0 -589z m2570 492 c16
-16 33 -43 36 -60 l7 -33 -222 0 c-134 0 -230 -4 -242 -10 -17 -9 -19 -22 -19
-100 l0 -90 160 0 c155 0 160 -1 160 -20 0 -33 -26 -75 -55 -88 -15 -7 -74
-12 -145 -12 l-120 0 0 -230 0 -230 -65 0 -66 0 3 398 3 399 27 35 c48 63 68
68 300 68 l208 0 30 -27z m399 -318 c17 -17 31 -43 33 -60 l3 -30 -180 -5
-180 -5 -3 -227 -2 -228 -65 0 -65 0 0 228 c0 220 1 231 23 272 16 30 37 51
68 68 41 22 53 23 191 20 l148 -3 29 -30z m-1153 9 c53 -25 84 -86 84 -166 0
-71 -20 -112 -73 -152 -26 -19 -44 -21 -228 -24 l-199 -3 0 -38 c0 -20 5 -42
12 -49 9 -9 75 -12 235 -12 243 0 233 3 212 -59 -19 -55 -45 -61 -269 -61
-225 0 -239 3 -287 67 l-28 36 0 188 c0 209 2 217 75 267 31 21 42 22 232 22
164 0 206 -3 234 -16z m1800 0 c57 -27 78 -68 82 -154 3 -65 1 -79 -20 -109
-50 -74 -57 -76 -279 -79 l-199 -3 0 -38 c0 -20 5 -42 12 -49 9 -9 75 -12 235
-12 215 0 223 -1 223 -20 0 -33 -23 -71 -51 -86 -22 -11 -75 -14 -232 -14
-195 0 -206 1 -238 23 -19 12 -44 42 -56 67 -21 40 -23 58 -23 200 0 142 2
160 23 200 12 25 37 55 56 67 32 22 43 23 233 23 164 0 206 -3 234 -16z
m-2841 -484 c142 -56 191 -79 168 -80 -18 0 -111 31 -207 69 l-175 68 -173
-69 c-107 -42 -184 -67 -203 -66 -23 2 18 22 165 80 107 42 202 77 210 77 8 1
105 -35 215 -79z m695 -264 c0 -3 -4 -8 -10 -11 -5 -3 -10 -1 -10 4 0 6 5 11
10 11 6 0 10 -2 10 -4z m2460 0 c0 -2 -7 -7 -16 -10 -8 -3 -12 -2 -9 4 6 10
25 14 25 6z m-2040 -76 c0 -5 -7 -10 -15 -10 -8 0 -15 5 -15 10 0 6 7 10 15
10 8 0 15 -4 15 -10z"/>
<path d="M1413 763 c-8 -3 -13 -24 -13 -56 l0 -52 177 3 c107 2 182 7 190 14
16 13 17 52 3 79 -10 18 -22 19 -178 18 -92 0 -173 -3 -179 -6z"/>
<path d="M3212 758 c-7 -7 -12 -32 -12 -57 l0 -46 182 3 c129 2 185 6 190 15
12 19 9 72 -4 85 -17 17 -339 17 -356 0z"/>
<path d="M570 1210 c0 -5 5 -10 11 -10 5 0 7 5 4 10 -3 6 -8 10 -11 10 -2 0
-4 -4 -4 -10z"/>
<path d="M542 1145 c0 -16 2 -22 5 -12 2 9 2 23 0 30 -3 6 -5 -1 -5 -18z"/>
<path d="M530 1080 c0 -5 13 -10 29 -10 17 0 33 5 36 10 4 6 -8 10 -29 10 -20
0 -36 -4 -36 -10z"/>
<path d="M533 1053 c15 -2 39 -2 55 0 15 2 2 4 -28 4 -30 0 -43 -2 -27 -4z"/>
<path d="M459 997 c-47 -31 -89 -96 -96 -145 l-6 -42 207 0 208 0 -7 33 c-12
56 -36 96 -83 137 -25 22 -49 40 -55 40 -5 0 11 -16 35 -35 46 -35 88 -103 88
-143 0 -18 -6 -22 -35 -22 -33 0 -35 2 -35 33 0 41 -40 126 -71 152 l-24 20
16 -20 c28 -34 58 -101 65 -144 6 -40 6 -41 -23 -41 -30 0 -30 1 -36 63 -7 65
-25 142 -33 134 -2 -2 0 -26 5 -53 5 -27 13 -70 16 -96 l6 -48 -35 0 c-36 0
-36 0 -36 43 0 23 6 68 14 99 7 32 9 55 5 52 -11 -7 -26 -66 -34 -136 -7 -55
-9 -58 -36 -58 -26 0 -27 2 -22 38 6 41 32 103 60 142 17 24 17 24 0 11 -26
-21 -65 -102 -73 -150 -6 -39 -9 -41 -40 -41 -26 0 -34 4 -34 18 1 36 39 99
85 140 53 47 55 53 4 19z"/>
<path d="M453 773 c65 -2 168 -2 230 0 62 1 9 3 -118 3 -126 0 -177 -2 -112
-3z"/>
<path d="M410 700 c0 -22 5 -40 10 -40 6 0 10 18 10 40 0 22 -4 40 -10 40 -5
0 -10 -18 -10 -40z"/>
<path d="M470 700 c0 -29 4 -40 15 -40 11 0 15 11 15 40 0 29 -4 40 -15 40
-11 0 -15 -11 -15 -40z"/>
<path d="M550 700 c0 -29 4 -40 13 -37 6 2 12 19 12 37 0 18 -6 35 -12 38 -9
2 -13 -9 -13 -38z"/>
<path d="M622 703 c4 -52 28 -56 28 -4 0 30 -4 41 -16 41 -11 0 -14 -9 -12
-37z"/>
<path d="M700 700 c0 -25 4 -39 10 -35 6 3 10 19 10 35 0 16 -4 32 -10 35 -6
4 -10 -10 -10 -35z"/>
<path d="M763 700 c0 -25 2 -35 4 -22 2 12 2 32 0 45 -2 12 -4 2 -4 -23z"/>
<path d="M362 700 c0 -19 2 -27 5 -17 2 9 2 25 0 35 -3 9 -5 1 -5 -18z"/>
<path d="M260 630 c0 -6 107 -10 300 -10 193 0 300 4 300 10 0 6 -107 10 -300
10 -193 0 -300 -4 -300 -10z"/>
<path d="M290 509 c0 -71 2 -80 18 -77 31 6 28 158 -3 158 -12 0 -15 -17 -15
-81z"/>
<path d="M361 524 c-2 -59 0 -65 16 -62 15 3 18 14 19 66 1 52 -1 62 -16 62
-14 0 -17 -11 -19 -66z"/>
<path d="M438 572 c-8 -30 3 -82 18 -82 10 0 14 14 14 50 0 36 -4 50 -14 50
-7 0 -16 -8 -18 -18z"/>
<path d="M510 550 c0 -31 3 -38 15 -34 9 4 15 19 15 40 0 24 -5 34 -15 34 -11
0 -15 -11 -15 -40z"/>
<path d="M580 556 c0 -22 6 -36 16 -40 24 -9 27 -2 20 39 -9 47 -36 48 -36 1z"/>
<path d="M651 546 c-1 -37 2 -47 19 -56 20 -11 21 -9 19 44 -2 44 -6 56 -19
56 -12 0 -17 -11 -19 -44z"/>
<path d="M730 526 c0 -48 4 -65 15 -70 12 -4 15 6 15 64 0 56 -3 70 -15 70
-12 0 -15 -14 -15 -64z"/>
<path d="M802 513 c2 -50 7 -78 16 -81 9 -3 12 17 12 77 0 66 -3 81 -15 81
-13 0 -15 -13 -13 -77z"/>
<path d="M10 71 c0 -15 6 -21 21 -21 25 0 22 33 -4 38 -12 2 -17 -3 -17 -17z"/>
<path d="M280 70 c0 -15 5 -20 18 -18 9 2 17 10 17 18 0 8 -8 16 -17 18 -13 2
-18 -3 -18 -18z"/>
<path d="M730 70 c0 -15 5 -20 18 -18 22 4 22 32 0 36 -13 2 -18 -3 -18 -18z"/>
<path d="M1570 71 c-8 -15 -8 -27 0 -41 19 -35 53 -17 48 26 -4 35 -32 44 -48
15z"/>
<path d="M3400 70 c0 -23 25 -27 33 -6 7 16 -1 26 -20 26 -7 0 -13 -9 -13 -20z"/>
<path d="M3893 75 c0 -8 10 -15 21 -16 20 0 20 -1 -1 -9 -27 -11 -21 -40 8
-40 15 0 19 7 19 40 0 35 -3 40 -23 40 -14 0 -24 -6 -24 -15z"/>
<path d="M150 60 c-9 -17 -8 -20 9 -20 14 0 18 5 14 20 -3 11 -7 20 -9 20 -2
0 -8 -9 -14 -20z"/>
<path d="M867 60 c-4 -15 0 -20 14 -20 17 0 18 3 9 20 -6 11 -12 20 -14 20 -2
0 -6 -9 -9 -20z"/>
<path d="M1986 65 c-9 -23 -8 -25 9 -25 17 0 19 9 6 28 -7 11 -10 10 -15 -3z"/>
<path d="M2386 64 c-9 -22 -8 -24 9 -24 8 0 15 6 15 14 0 22 -17 28 -24 10z"/>
<path d="M1000 37 c0 -33 3 -37 25 -37 14 0 25 1 25 3 0 2 -11 18 -25 37 l-25
34 0 -37z"/>
<path d="M1720 30 c0 -26 4 -30 26 -30 l25 0 -21 30 c-12 17 -23 30 -26 30 -2
0 -4 -13 -4 -30z"/>
<path d="M2890 30 c0 -25 4 -30 25 -30 l26 0 -23 30 c-12 17 -23 30 -25 30 -2
0 -3 -13 -3 -30z"/>
<path d="M1290 26 c0 -21 5 -26 26 -26 21 0 25 4 22 23 -2 14 -11 23 -25 25
-19 3 -23 -1 -23 -22z"/>
<path d="M287 33 c-14 -13 -6 -33 13 -33 11 0 20 4 20 9 0 13 -26 32 -33 24z"/>
<path d="M3400 20 c0 -13 7 -20 20 -20 23 0 26 10 8 28 -18 18 -28 15 -28 -8z"/>
<path d="M135 10 c-4 -6 7 -10 25 -10 18 0 29 4 25 10 -3 6 -15 10 -25 10 -10
0 -22 -4 -25 -10z"/>
<path d="M855 10 c-4 -6 7 -10 25 -10 18 0 29 4 25 10 -3 6 -15 10 -25 10 -10
0 -22 -4 -25 -10z"/>
<path d="M1970 10 c0 -5 11 -10 25 -10 14 0 25 5 25 10 0 6 -11 10 -25 10 -14
0 -25 -4 -25 -10z"/>
<path d="M2370 10 c0 -5 11 -10 25 -10 14 0 25 5 25 10 0 6 -11 10 -25 10 -14
0 -25 -4 -25 -10z"/>
</g>
</svg>
