<?xml version="1.0" standalone="no"?>
<!DOCTYPE svg PUBLIC "-//W3C//DTD SVG 20010904//EN"
 "http://www.w3.org/TR/2001/REC-SVG-20010904/DTD/svg10.dtd">
<svg version="1.0" xmlns="http://www.w3.org/2000/svg"
 width="222.000000pt" height="227.000000pt" viewBox="0 0 222.000000 227.000000"
 preserveAspectRatio="xMidYMid meet">

<g transform="translate(0.000000,227.000000) scale(0.100000,-0.100000)"
fill="#000000" stroke="none">
<path d="M1015 2249 c-51 -25 -50 -15 -53 -624 -2 -393 0 -582 8 -608 6 -20
22 -44 36 -53 31 -21 123 -23 157 -5 53 28 52 19 52 653 l0 590 -33 29 c-28
25 -40 29 -90 28 -31 0 -66 -5 -77 -10z"/>
<path d="M1480 1947 l1 -142 70 -45 c88 -56 203 -175 257 -266 23 -38 56 -112
74 -164 31 -90 32 -103 33 -240 0 -164 -13 -227 -70 -347 -86 -182 -219 -315
-397 -397 -101 -47 -176 -65 -293 -72 -332 -20 -635 162 -779 467 -58 123 -71
185 -71 349 1 137 2 150 33 240 18 52 51 126 74 164 44 75 155 197 218 241
l40 28 0 149 0 148 -52 -26 c-187 -95 -371 -280 -465 -469 -86 -171 -117 -320
-110 -520 11 -289 107 -514 307 -716 193 -196 433 -303 710 -316 311 -15 592
95 810 316 142 143 233 305 283 500 31 122 31 398 -1 513 -91 333 -326 604
-634 732 l-38 15 0 -142z"/>
</g>
</svg>
