<?xml version="1.0" standalone="no"?>
<!DOCTYPE svg PUBLIC "-//W3C//DTD SVG 20010904//EN"
 "http://www.w3.org/TR/2001/REC-SVG-20010904/DTD/svg10.dtd">
<svg version="1.0" xmlns="http://www.w3.org/2000/svg"
 width="394.000000pt" height="128.000000pt" viewBox="0 0 394.000000 128.000000"
 preserveAspectRatio="xMidYMid meet">

<g transform="translate(0.000000,128.000000) scale(0.100000,-0.100000)"
fill="#000000" stroke="none">
<path d="M550 1265 c0 -8 -4 -15 -9 -15 -15 0 -25 -42 -22 -92 2 -37 -2 -50
-17 -64 -11 -9 -18 -23 -15 -30 2 -6 -16 -26 -42 -44 -56 -38 -90 -89 -106
-155 -6 -27 -14 -57 -17 -65 -3 -8 -4 -43 -3 -77 l3 -63 -50 0 c-35 0 -50 -4
-48 -12 5 -29 18 -58 26 -58 4 0 7 -41 7 -92 l-2 -92 -120 -48 c-66 -26 -111
-47 -99 -47 11 -1 134 44 273 98 l253 100 254 -100 c140 -55 262 -99 271 -97
9 2 -36 23 -100 48 l-117 44 0 91 c0 65 4 97 15 111 29 39 20 54 -35 54 -50 0
-50 0 -50 33 0 17 4 46 9 64 7 24 6 33 -5 37 -8 3 -14 19 -14 38 -1 68 -57
156 -128 200 -24 15 -31 25 -27 39 4 13 2 19 -9 19 -19 0 -26 29 -23 90 1 32
-4 53 -18 72 -22 31 -35 35 -35 13z m4 -50 c-4 -8 -10 -15 -15 -15 -4 0 -6 7
-3 15 4 8 10 15 15 15 4 0 6 -7 3 -15z m36 -6 c0 -5 -4 -9 -10 -9 -5 0 -10 7
-10 16 0 8 5 12 10 9 6 -3 10 -10 10 -16z m-40 -64 c0 -19 -4 -35 -10 -35 -11
0 -14 53 -3 63 11 12 13 8 13 -28z m40 0 c0 -19 -4 -35 -10 -35 -5 0 -10 16
-10 35 0 19 5 35 10 35 6 0 10 -16 10 -35z m10 -65 c0 -5 -18 -10 -40 -10 -22
0 -40 5 -40 10 0 6 18 10 40 10 22 0 40 -4 40 -10z m20 -30 c0 -6 -27 -10 -60
-10 -33 0 -60 4 -60 10 0 6 27 10 60 10 33 0 60 -4 60 -10z m60 -61 c45 -33
90 -113 90 -161 l0 -28 -210 0 c-237 0 -225 -5 -195 79 17 50 44 86 85 116 25
19 44 23 110 23 72 1 82 -2 120 -29z m110 -219 c0 -14 -447 -14 -455 0 -4 7
73 10 224 10 147 0 231 -4 231 -10z m-360 -71 c0 -28 -4 -39 -15 -39 -11 0
-15 11 -15 38 0 21 3 42 6 45 14 13 24 -6 24 -44z m70 0 c0 -28 -4 -39 -15
-39 -11 0 -15 11 -15 38 0 21 3 42 6 45 14 13 24 -6 24 -44z m78 3 c3 -37 1
-42 -17 -42 -18 0 -21 6 -21 38 0 68 33 71 38 4z m82 -3 c0 -32 -3 -39 -20
-39 -17 0 -20 7 -20 38 0 43 6 53 26 45 9 -3 14 -20 14 -44z m60 0 c0 -28 -4
-39 -15 -39 -11 0 -15 11 -15 38 0 21 3 42 6 45 14 13 24 -6 24 -44z m-350 1
c0 -22 -4 -40 -10 -40 -5 0 -10 18 -10 40 0 22 5 40 10 40 6 0 10 -18 10 -40z
m400 0 c0 -22 -4 -40 -10 -40 -5 0 -10 18 -10 40 0 22 5 40 10 40 6 0 10 -18
10 -40z m100 -70 c0 -6 -108 -10 -305 -10 -197 0 -305 4 -305 10 0 6 108 10
305 10 197 0 305 -4 305 -10z m-541 -119 c2 -70 0 -79 -17 -83 -17 -5 -20 1
-25 52 -6 75 1 110 23 110 15 0 17 -11 19 -79z m71 15 c0 -60 -8 -76 -36 -76
-2 0 -4 32 -4 70 0 63 2 70 20 70 18 0 20 -7 20 -64z m76 27 c7 -39 -4 -66
-30 -71 -13 -3 -16 6 -16 52 0 49 2 56 20 56 14 0 21 -9 26 -37z m72 5 c3 -31
-10 -48 -36 -48 -9 0 -12 13 -10 40 2 33 5 40 23 40 16 0 21 -7 23 -32z m72
-9 c0 -33 -3 -40 -17 -37 -13 2 -19 14 -21 41 -3 32 0 37 17 37 18 0 21 -6 21
-41z m70 -15 c0 -47 -3 -55 -16 -50 -9 3 -18 6 -20 6 -2 0 -4 23 -4 50 0 43 3
50 20 50 18 0 20 -7 20 -56z m74 34 c9 -35 7 -118 -3 -118 -34 0 -41 13 -41
76 0 56 2 64 19 64 11 0 21 -9 25 -22z m75 -63 c1 -47 -1 -85 -4 -85 -4 0 -15
5 -26 11 -18 9 -20 19 -18 85 3 68 5 74 25 74 20 0 21 -5 23 -85z"/>
<path d="M457 979 c-42 -35 -77 -95 -77 -134 0 -21 5 -25 30 -25 27 0 30 3 30
33 0 35 31 111 57 139 26 29 1 21 -40 -13z"/>
<path d="M510 981 c-25 -36 -50 -104 -50 -137 0 -19 5 -24 25 -24 23 0 25 4
25 43 0 23 6 66 14 95 7 29 12 52 10 52 -1 0 -12 -13 -24 -29z"/>
<path d="M552 975 c-6 -22 -14 -66 -18 -97 l-7 -58 33 0 33 0 -7 68 c-3 37
-10 81 -15 97 l-8 30 -11 -40z"/>
<path d="M649 956 c16 -30 32 -73 36 -95 6 -37 10 -41 36 -41 33 0 33 1 19 52
-12 42 -47 87 -91 118 l-28 21 28 -55z"/>
<path d="M595 985 c3 -11 9 -42 11 -70 9 -83 13 -95 34 -95 15 0 20 7 20 26 0
43 -21 100 -47 130 -18 22 -23 24 -18 9z"/>
<path d="M2115 1199 c-17 -4 -46 -25 -65 -44 l-35 -36 -3 -405 -3 -404 56 0
55 0 0 230 0 230 115 0 c139 0 179 13 200 64 8 20 15 40 15 46 0 6 -58 10
-165 10 l-165 0 0 81 c0 127 -18 119 250 119 l230 0 0 28 c0 40 -25 70 -68 82
-45 12 -374 12 -417 -1z"/>
<path d="M3820 1000 c0 -38 4 -70 9 -70 4 0 22 5 40 11 36 13 61 53 61 99 0
30 0 30 -55 30 l-55 0 0 -70z"/>
<path d="M3894 889 c-17 -5 -39 -18 -50 -30 -18 -19 -19 -41 -22 -285 l-3
-264 56 0 55 0 0 295 c0 162 -1 295 -2 294 -2 0 -17 -5 -34 -10z"/>
<path d="M1358 870 c-71 -38 -78 -63 -78 -270 0 -210 7 -232 84 -269 38 -19
61 -21 224 -21 231 0 272 14 272 94 l0 26 -223 0 c-160 0 -226 3 -235 12 -7 7
-12 29 -12 49 l0 37 198 4 c182 3 200 5 232 25 47 29 71 73 77 141 4 46 0 65
-19 101 -43 83 -51 86 -281 88 -184 3 -205 1 -239 -17z m416 -116 c10 -26 7
-79 -6 -92 -8 -8 -66 -12 -195 -12 l-183 0 0 48 c0 26 5 53 12 60 8 8 65 12
189 12 152 0 178 -2 183 -16z"/>
<path d="M2592 870 c-18 -11 -41 -34 -52 -52 -18 -31 -20 -51 -20 -270 l0
-238 55 0 55 0 0 218 c0 199 2 220 18 235 16 14 44 17 187 17 l168 0 -7 33
c-3 17 -17 42 -32 55 -24 21 -34 22 -182 22 -139 0 -161 -2 -190 -20z"/>
<path d="M3156 868 c-70 -41 -77 -66 -74 -278 3 -210 7 -222 85 -260 39 -20
56 -21 243 -18 l202 3 24 28 c14 16 24 41 24 58 l0 29 -225 0 c-212 0 -225 1
-235 19 -5 11 -10 33 -10 49 l0 30 198 4 c196 3 199 3 239 30 54 36 78 96 70
175 -6 60 -25 93 -71 127 -25 19 -43 21 -229 24 -194 2 -204 1 -241 -20z m418
-114 c10 -26 7 -79 -6 -92 -8 -8 -66 -12 -195 -12 l-183 0 0 41 c0 80 -2 79
199 79 154 0 180 -2 185 -16z"/>
<path d="M361 392 c-107 -42 -187 -78 -178 -80 9 -2 98 29 197 68 l180 72 181
-71 c99 -39 190 -71 202 -71 18 1 -317 139 -373 154 -8 3 -102 -30 -209 -72z"/>
<path d="M1 48 c0 -38 3 -47 9 -33 4 11 5 32 3 48 -5 22 -2 27 16 27 23 0 30
-35 8 -43 -7 -3 -4 -6 6 -6 14 -1 18 5 15 27 -2 21 -9 28 -30 30 -28 3 -28 2
-27 -50z"/>
<path d="M142 73 c-6 -16 -13 -39 -17 -53 -5 -21 -4 -22 5 -8 14 23 46 23 60
1 9 -15 10 -14 6 9 -10 43 -25 78 -35 78 -5 0 -13 -12 -19 -27z m32 -9 c9 -23
8 -24 -13 -24 -14 0 -18 5 -14 20 6 24 19 26 27 4z"/>
<path d="M271 48 c1 -29 4 -43 6 -30 2 12 9 22 15 22 5 0 19 -10 30 -22 11
-13 16 -16 12 -8 -5 8 -8 31 -9 50 0 31 -3 35 -27 38 -28 3 -28 3 -27 -50z
m47 25 c-5 -26 -38 -29 -38 -4 0 15 6 21 21 21 14 0 19 -5 17 -17z"/>
<path d="M413 50 c0 -30 2 -43 4 -28 2 16 2 40 0 55 -2 16 -4 3 -4 -27z"/>
<path d="M507 93 c-14 -14 -6 -34 18 -45 30 -14 28 -30 -6 -39 -22 -6 -22 -7
-3 -8 31 -1 50 24 34 44 -7 8 -19 15 -26 15 -23 0 -16 28 9 33 20 4 20 4 1 6
-11 0 -24 -2 -27 -6z"/>
<path d="M721 48 c1 -29 3 -45 6 -35 3 10 16 22 30 28 35 13 29 53 -9 57 -28
3 -28 2 -27 -50z m47 19 c2 -12 -3 -17 -17 -17 -15 0 -21 6 -21 21 0 25 33 22
38 -4z"/>
<path d="M860 75 c-5 -14 -12 -38 -16 -53 -4 -23 -3 -24 6 -10 14 23 46 23 60
1 9 -15 10 -14 5 7 -11 45 -27 80 -36 80 -5 0 -14 -11 -19 -25z m33 -15 c4
-15 0 -20 -14 -20 -21 0 -22 1 -13 24 8 22 21 20 27 -4z"/>
<path d="M992 50 c1 -51 1 -52 7 -16 l6 39 28 -39 27 -39 -1 55 c-2 54 -2 54
-9 15 -4 -22 -8 -35 -9 -30 0 6 -12 24 -26 40 l-24 30 1 -55z"/>
<path d="M1143 93 c13 -3 17 -15 17 -49 0 -28 4 -43 10 -39 6 3 10 24 10 45 0
28 5 40 18 43 9 3 -3 5 -28 5 -25 0 -37 -2 -27 -5z"/>
<path d="M1283 50 c0 -30 2 -43 4 -27 3 21 10 27 28 27 18 0 25 -6 28 -27 2
-16 4 -3 4 27 0 30 -2 45 -4 33 -3 -16 -11 -23 -28 -23 -17 0 -25 7 -28 23 -2
12 -4 -3 -4 -33z"/>
<path d="M1432 53 c2 -40 6 -48 23 -49 15 -1 16 0 3 3 -26 6 -22 41 5 46 l22
4 -22 2 c-13 0 -23 7 -23 15 0 8 10 17 23 19 18 4 18 4 -6 6 -27 1 -28 0 -25
-46z"/>
<path d="M1561 86 c-17 -20 -10 -66 12 -80 28 -18 52 4 52 50 0 34 -3 39 -26
42 -14 2 -31 -4 -38 -12z m57 -34 c4 -38 -20 -54 -45 -29 -23 23 -9 69 20 65
17 -2 23 -11 25 -36z"/>
<path d="M1711 50 l2 -55 7 45 c4 25 4 49 -1 55 -5 5 -8 -13 -8 -45z"/>
<path d="M1768 58 c-3 -24 -1 -47 3 -53 5 -5 9 14 9 43 0 63 -6 68 -12 10z"/>
<path d="M1981 81 c-7 -13 -10 -25 -8 -28 3 -2 8 6 12 18 l7 22 14 -24 c7 -13
13 -19 14 -13 0 5 -6 19 -14 29 -13 18 -14 18 -25 -4z"/>
<path d="M2113 89 c-14 -14 -6 -39 13 -39 8 0 19 -10 24 -22 8 -22 9 -22 9 -2
1 13 -9 25 -26 33 -27 13 -23 25 12 34 20 5 20 5 0 6 -12 0 -26 -4 -32 -10z"/>
<path d="M2258 93 c6 -2 18 -2 25 0 6 3 1 5 -13 5 -14 0 -19 -2 -12 -5z"/>
<path d="M2385 89 c-4 -6 -4 -13 -1 -16 3 -4 6 -1 6 6 0 7 5 9 10 6 6 -3 10
-1 10 4 0 14 -17 14 -25 0z"/>
<path d="M2516 91 c-3 -4 6 -6 19 -3 14 2 25 6 25 8 0 8 -39 4 -44 -5z"/>
<path d="M2730 53 c4 -35 10 -49 23 -51 30 -6 47 17 45 62 l-1 41 -4 -37 c-8
-70 -53 -76 -53 -7 0 21 -4 39 -8 39 -4 0 -5 -21 -2 -47z"/>
<path d="M2882 50 c1 -40 2 -46 5 -20 l5 35 29 -35 28 -35 -1 55 c-1 51 -1 52
-7 16 l-6 -39 -27 39 -28 39 2 -55z"/>
<path d="M3033 50 c0 -30 2 -43 4 -28 2 16 2 40 0 55 -2 16 -4 3 -4 -27z"/>
<path d="M3115 78 c8 -42 24 -78 34 -78 10 0 44 91 36 98 -2 3 -7 -4 -11 -14
-3 -10 -10 -30 -16 -44 l-10 -25 -9 23 c-5 12 -14 32 -19 45 -10 20 -10 20 -5
-5z"/>
<path d="M3262 53 c2 -40 6 -48 23 -49 15 -1 16 0 3 3 -26 6 -22 41 5 46 l22
4 -22 2 c-13 0 -23 7 -23 15 0 8 10 17 23 19 18 4 18 4 -6 6 -27 1 -28 0 -25
-46z"/>
<path d="M3391 48 c1 -29 4 -43 6 -30 5 27 18 28 35 3 13 -18 14 -15 13 27 0
44 -2 47 -27 50 -28 3 -28 3 -27 -50z m44 22 c0 -8 -8 -16 -17 -18 -13 -2 -18
3 -18 18 0 15 5 20 18 18 9 -2 17 -10 17 -18z"/>
<path d="M3527 87 c-6 -17 3 -32 26 -40 25 -9 21 -37 -5 -38 -18 -1 -19 -2 -5
-6 41 -11 57 39 16 52 -26 9 -24 33 4 38 20 4 19 4 -4 6 -15 0 -29 -5 -32 -12z"/>
<path d="M3663 50 c0 -30 2 -43 4 -28 2 16 2 40 0 55 -2 16 -4 3 -4 -27z"/>
<path d="M3752 93 c12 -3 18 -18 21 -51 l3 -47 2 47 c2 35 6 48 20 51 9 3 -1
5 -23 5 -22 0 -32 -2 -23 -5z"/>
<path d="M3882 53 c3 -45 5 -48 33 -50 28 -2 28 -1 5 5 -33 10 -38 39 -8 45
l23 4 -22 2 c-33 2 -29 29 5 34 25 4 24 4 -6 6 l-33 1 3 -47z"/>
<path d="M2230 71 c0 -10 19 -25 25 -20 1 2 -3 10 -11 17 -8 7 -14 8 -14 3z"/>
<path d="M1730 62 c0 -5 7 -15 15 -22 8 -7 15 -8 15 -2 0 5 -7 15 -15 22 -8 7
-15 8 -15 2z"/>
<path d="M2517 59 c7 -7 15 -10 18 -7 3 3 -2 9 -12 12 -14 6 -15 5 -6 -5z"/>
<path d="M1868 53 c7 -3 16 -2 19 1 4 3 -2 6 -13 5 -11 0 -14 -3 -6 -6z"/>
<path d="M2366 34 c-4 -14 -5 -28 -3 -31 3 -2 8 8 11 23 4 14 5 28 3 31 -3 2
-8 -8 -11 -23z"/>
<path d="M2277 30 c3 -11 7 -20 9 -20 2 0 4 9 4 20 0 11 -4 20 -9 20 -5 0 -7
-9 -4 -20z"/>
<path d="M1965 29 c-4 -6 -5 -12 -2 -15 2 -3 7 2 10 11 7 17 1 20 -8 4z"/>
<path d="M2016 25 c4 -8 8 -15 10 -15 2 0 4 7 4 15 0 8 -4 15 -10 15 -5 0 -7
-7 -4 -15z"/>
<path d="M2118 3 c7 -3 16 -2 19 1 4 3 -2 6 -13 5 -11 0 -14 -3 -6 -6z"/>
<path d="M2248 3 c7 -3 16 -2 19 1 4 3 -2 6 -13 5 -11 0 -14 -3 -6 -6z"/>
</g>
</svg>
