<?xml version="1.0" standalone="no"?>
<!DOCTYPE svg PUBLIC "-//W3C//DTD SVG 20010904//EN"
 "http://www.w3.org/TR/2001/REC-SVG-20010904/DTD/svg10.dtd">
<svg version="1.0" xmlns="http://www.w3.org/2000/svg"
 width="275.000000pt" height="183.000000pt" viewBox="0 0 275.000000 183.000000"
 preserveAspectRatio="xMidYMid meet">

<g transform="translate(0.000000,183.000000) scale(0.100000,-0.100000)"
fill="#000000" stroke="none">
<path d="M565 1696 c-29 -44 -4 -65 145 -121 41 -15 83 -34 92 -42 18 -16 21
-24 169 -448 55 -159 101 -304 101 -321 0 -17 -9 -48 -20 -70 -30 -59 -76
-209 -69 -226 3 -8 20 -18 37 -22 28 -5 31 -9 25 -28 -31 -104 -24 -149 30
-197 79 -69 206 -44 245 49 12 30 10 118 -5 152 -7 17 4 18 155 18 137 0 161
-2 157 -14 -36 -93 -27 -156 28 -205 77 -67 195 -48 241 41 18 35 20 101 5
141 -14 37 -15 37 13 37 49 0 76 59 37 80 -13 6 -169 10 -440 10 -331 0 -421
3 -420 13 0 6 8 35 18 62 l18 50 414 5 c228 3 415 7 416 8 11 11 38 88 133
384 60 190 110 349 110 356 0 6 -7 18 -16 26 -14 14 -84 16 -618 16 -499 0
-606 2 -615 14 -6 7 -18 37 -27 66 -8 29 -25 62 -38 75 -24 24 -246 115 -282
115 -14 0 -30 -10 -39 -24z m745 -411 l0 -65 -82 1 c-46 1 -110 4 -142 8 -64
7 -60 2 -90 99 l-7 22 160 0 161 0 0 -65z m350 5 l0 -60 -120 0 -120 0 0 60 0
60 120 0 120 0 0 -60z m405 23 c-14 -81 -41 -93 -217 -93 l-78 0 0 65 0 65
151 0 151 0 -7 -37z m-755 -263 l0 -70 -87 0 c-49 0 -94 4 -100 8 -10 6 -53
111 -53 129 0 1 54 3 120 3 l120 0 0 -70z m350 0 l0 -70 -120 0 -120 0 0 70 0
70 120 0 120 0 0 -70z m340 62 c0 -15 -33 -107 -43 -119 -6 -9 -39 -13 -98
-13 l-89 0 0 70 0 70 115 0 c63 0 115 -4 115 -8z m-690 -292 l0 -60 -54 0
c-60 0 -66 5 -89 73 l-16 47 80 0 79 0 0 -60z m350 5 l0 -55 -120 0 -120 0 0
55 0 55 120 0 120 0 0 -55z m260 41 c0 -25 -23 -81 -38 -93 -9 -7 -37 -13 -64
-13 l-48 0 0 60 0 60 75 0 c56 0 75 -3 75 -14z m-695 -481 c48 -47 22 -115
-45 -115 -29 0 -43 6 -54 22 -24 34 -20 73 10 97 35 27 59 26 89 -4z m580 0
c46 -46 22 -115 -41 -115 -41 0 -74 29 -74 65 0 31 41 75 70 75 12 0 32 -11
45 -25z"/>
</g>
</svg>
