<?xml version="1.0" standalone="no"?>
<!DOCTYPE svg PUBLIC "-//W3C//DTD SVG 20010904//EN"
 "http://www.w3.org/TR/2001/REC-SVG-20010904/DTD/svg10.dtd">
<svg version="1.0" xmlns="http://www.w3.org/2000/svg"
 width="272.000000pt" height="185.000000pt" viewBox="0 0 272.000000 185.000000"
 preserveAspectRatio="xMidYMid meet">

<g transform="translate(0.000000,185.000000) scale(0.100000,-0.100000)"
fill="#000000" stroke="none">
<path d="M1225 1698 c-71 -16 -134 -33 -141 -39 -6 -5 -17 -50 -23 -99 l-13
-90 -36 -9 c-21 -5 -122 -28 -227 -51 -104 -22 -200 -45 -212 -50 -27 -11 -31
-48 -7 -57 13 -5 105 10 139 23 7 3 17 -78 27 -218 38 -486 79 -984 83 -995 3
-10 120 -13 539 -13 294 0 537 3 539 8 9 14 100 1189 94 1205 -5 13 -19 17
-56 17 l-50 0 -41 74 c-22 41 -46 77 -53 79 -16 6 -46 -10 -78 -40 l-27 -24
-68 34 c-38 19 -75 32 -83 29 -7 -2 -66 -38 -129 -78 l-115 -74 -261 1 c-166
0 -253 4 -239 9 13 5 110 28 215 50 106 23 272 59 368 80 96 22 281 62 410 90
129 28 239 55 243 59 5 5 7 17 5 27 -5 31 -50 27 -287 -25 -124 -28 -226 -49
-226 -48 -96 156 -96 157 -129 156 -17 -1 -89 -15 -161 -31z m188 -84 c15 -25
27 -48 27 -52 0 -9 -308 -77 -315 -70 -3 3 -3 30 1 60 l6 56 112 25 c61 14
118 25 126 26 8 0 27 -20 43 -45z m203 -239 c34 -19 65 -35 68 -35 3 0 21 14
41 31 20 18 37 30 38 28 21 -29 38 -62 34 -65 -2 -2 -87 -3 -188 -2 l-184 3
55 38 c30 20 59 37 64 37 5 0 37 -16 72 -35z m304 -132 c0 -22 -47 -621 -78
-993 l-7 -85 -480 0 -480 0 -17 205 c-9 113 -28 349 -42 525 -14 176 -26 332
-26 348 l0 27 565 0 565 0 0 -27z"/>
<path d="M1024 1106 c-16 -12 -16 -23 0 -232 33 -412 45 -544 51 -554 10 -16
45 -12 52 6 6 15 -42 700 -53 756 -6 32 -26 41 -50 24z"/>
<path d="M1336 1104 c-14 -14 -16 -60 -14 -396 3 -343 5 -382 20 -391 12 -8
21 -7 32 2 14 12 16 59 16 397 0 368 -1 384 -19 394 -15 7 -23 6 -35 -6z"/>
<path d="M1650 1110 c-8 -5 -17 -68 -25 -176 -7 -93 -21 -265 -31 -382 -16
-194 -16 -215 -1 -229 22 -22 45 -10 51 29 7 44 56 673 56 719 0 38 -23 56
-50 39z"/>
</g>
</svg>
